{
	"asset":{
		"generator":"Khronos glTF Blender I/O v4.1.63",
		"version":"2.0"
	},
	"extensionsUsed":[
		"KHR_materials_specular"
	],
	"scene":0,
	"scenes":[
		{
			"name":"Scene",
			"nodes":[
				0
			]
		}
	],
	"nodes":[
		{
			"mesh":0,
			"name":"roun",
			"rotation":[
				0.7071068286895752,
				0,
				0,
				0.7071068286895752
			]
		}
	],
	"materials":[
		{
			"alphaMode":"NONE",
			"doubleSided":true,
			"extensions":{
				"KHR_materials_specular":{
					"specularFactor":0
				}
			},
			"name":"RougeFoot",
			"pbrMetallicRoughness":{
				"baseColorTexture":{
					"index":0
				},
				"metallicFactor":0
			}
		},
		{
			"alphaMode":"NONE",
			"doubleSided":true,
			"extensions":{
				"KHR_materials_specular":{
					"specularFactor":0
				}
			},
			"name":"Rouge_Hand",
			"pbrMetallicRoughness":{
				"baseColorTexture":{
					"index":1
				},
				"metallicFactor":0
			}
		},
		{
			"alphaMode":"NONE",
			"doubleSided":true,
			"extensions":{
				"KHR_materials_specular":{
					"specularFactor":0
				}
			},
			"name":"RougeMain",
			"pbrMetallicRoughness":{
				"baseColorTexture":{
					"index":2
				},
				"metallicFactor":0
			}
		}
	],
	"meshes":[
		{
			"name":"roun",
			"primitives":[
				{
					"attributes":{
						"POSITION":0,
						"NORMAL":1,
						"TEXCOORD_0":2
					},
					"indices":3,
					"material":0
				},
				{
					"attributes":{
						"POSITION":4,
						"NORMAL":5,
						"TEXCOORD_0":6
					},
					"indices":7,
					"material":1
				},
				{
					"attributes":{
						"POSITION":8,
						"NORMAL":9,
						"TEXCOORD_0":10
					},
					"indices":11,
					"material":2
				}
			]
		}
	],
	"textures":[
		{
			"sampler":0,
			"source":0
		},
		{
			"sampler":0,
			"source":1
		},
		{
			"sampler":0,
			"source":2
		}
	],
	"images":[
		{
			"mimeType":"image/png",
			"name":"GenRoug_AA_3",
			"uri":"GenRoug_AA_3.png"
		},
		{
			"mimeType":"image/png",
			"name":"GenRoug_AA_2",
			"uri":"GenRoug_AA_2.png"
		},
		{
			"mimeType":"image/png",
			"name":"GenRoug_AA_1-output-onlinepngtools",
			"uri":"GenRoug_AA_1-output-onlinepngtools.png"
		}
	],
	"accessors":[
		{
			"bufferView":0,
			"componentType":5126,
			"count":178,
			"max":[
				3.557504892349243,
				3.4402289390563965,
				0.007001311052590609
			],
			"min":[
				-3.56003999710083,
				-3.0605170726776123,
				-5.709498882293701
			],
			"type":"VEC3"
		},
		{
			"bufferView":1,
			"componentType":5126,
			"count":178,
			"type":"VEC3"
		},
		{
			"bufferView":2,
			"componentType":5126,
			"count":178,
			"type":"VEC2"
		},
		{
			"bufferView":3,
			"componentType":5123,
			"count":210,
			"type":"SCALAR"
		},
		{
			"bufferView":4,
			"componentType":5126,
			"count":310,
			"max":[
				8.3831205368042,
				1.0952149629592896,
				-5.331324100494385
			],
			"min":[
				-8.382916450500488,
				-3.979248046875,
				-12.169400215148926
			],
			"type":"VEC3"
		},
		{
			"bufferView":5,
			"componentType":5126,
			"count":310,
			"type":"VEC3"
		},
		{
			"bufferView":6,
			"componentType":5126,
			"count":310,
			"type":"VEC2"
		},
		{
			"bufferView":7,
			"componentType":5123,
			"count":363,
			"type":"SCALAR"
		},
		{
			"bufferView":8,
			"componentType":5126,
			"count":436,
			"max":[
				5.312872886657715,
				2.360595941543579,
				-5.505602836608887
			],
			"min":[
				-5.307528018951416,
				-5.168863773345947,
				-18.194639205932617
			],
			"type":"VEC3"
		},
		{
			"bufferView":9,
			"componentType":5126,
			"count":436,
			"type":"VEC3"
		},
		{
			"bufferView":10,
			"componentType":5126,
			"count":436,
			"type":"VEC2"
		},
		{
			"bufferView":11,
			"componentType":5123,
			"count":522,
			"type":"SCALAR"
		}
	],
	"bufferViews":[
		{
			"buffer":0,
			"byteLength":2136,
			"byteOffset":0,
			"target":34962
		},
		{
			"buffer":0,
			"byteLength":2136,
			"byteOffset":2136,
			"target":34962
		},
		{
			"buffer":0,
			"byteLength":1424,
			"byteOffset":4272,
			"target":34962
		},
		{
			"buffer":0,
			"byteLength":420,
			"byteOffset":5696,
			"target":34963
		},
		{
			"buffer":0,
			"byteLength":3720,
			"byteOffset":6116,
			"target":34962
		},
		{
			"buffer":0,
			"byteLength":3720,
			"byteOffset":9836,
			"target":34962
		},
		{
			"buffer":0,
			"byteLength":2480,
			"byteOffset":13556,
			"target":34962
		},
		{
			"buffer":0,
			"byteLength":726,
			"byteOffset":16036,
			"target":34963
		},
		{
			"buffer":0,
			"byteLength":5232,
			"byteOffset":16764,
			"target":34962
		},
		{
			"buffer":0,
			"byteLength":5232,
			"byteOffset":21996,
			"target":34962
		},
		{
			"buffer":0,
			"byteLength":3488,
			"byteOffset":27228,
			"target":34962
		},
		{
			"buffer":0,
			"byteLength":1044,
			"byteOffset":30716,
			"target":34963
		}
	],
	"samplers":[
		{
			"magFilter":9728,
			"minFilter":9984
		}
	],
	"buffers":[
		{
			"byteLength":31760,
			"uri":"rouge1.bin"
		}
	]
}
